<?xml version="1.0" encoding="utf-8"?>
<!-- Generator: Adobe Illustrator 18.0.0, SVG Export Plug-In . SVG Version: 6.00 Build 0)  -->
<!DOCTYPE svg PUBLIC "-//W3C//DTD SVG 1.1//EN" "http://www.w3.org/Graphics/SVG/1.1/DTD/svg11.dtd">
<svg version="1.1" id="Layer_1" xmlns="http://www.w3.org/2000/svg" xmlns:xlink="http://www.w3.org/1999/xlink" x="0px" y="0px"
	 viewBox="0 0 40.3 40.3" enable-background="new 0 0 40.3 40.3" xml:space="preserve">
<g id="XMLID_1716_">
	<path id="XMLID_1720_" fill="#2DABE2" d="M20.1,39.4L20.1,39.4c-10.5,0-19-8.5-19-19v0c0-10.5,8.5-19,19-19l0,0
		c10.5,0,19,8.5,19,19v0C39.1,30.9,30.6,39.4,20.1,39.4z"/>
	<g id="XMLID_1717_">
		<path id="XMLID_1719_" fill="#FFFFFF" d="M22.4,19.9h-7.7l0,2.2H20c-0.6,2.7-2.5,4.3-5,4.3c-3.3,0-6-2.7-6-6c0-3.3,2.7-6,6-6
			c1.6,0,3,0.6,4.1,1.6l1.7-1.5c-1.5-1.5-3.5-2.4-5.8-2.4c-4.6,0-8.3,3.7-8.3,8.3c0,4.6,3.7,8.3,8.3,8.3c4.4,0,7.6-3.3,7.6-7.9
			L22.4,19.9z"/>
		<polygon id="XMLID_1718_" fill="#FFFFFF" points="33.5,20 30.3,20 30.3,16.8 28.3,16.8 28.3,20 25.1,20 25.1,22 28.3,22 
			28.3,25.2 30.3,25.2 30.3,22 33.5,22 		"/>
	</g>
</g>
</svg>
